<svg xmlns="http://www.w3.org/2000/svg" viewBox="0 0 24 24" fill="#181717"><path d="M12 .5C5.65.5.5 5.65.5 12c0 5.08 3.29 9.39 7.86 10.91.58.11.79-.25.79-.55 0-.27-.01-1-.02-1.95-3.2.69-3.88-1.54-3.88-1.54-.52-1.33-1.28-1.68-1.28-1.68-1.05-.71.08-.7.08-.7 1.16.08 1.77 1.19 1.77 1.19 1.03 1.76 2.7 1.25 3.36.96.1-.75.4-1.26.73-1.55-2.55-.29-5.24-1.28-5.24-5.69 0-1.26.45-2.29 1.19-3.1-.12-.29-.52-1.47.11-3.06 0 0 .97-.31 3.18 1.18a11 11 0 0 1 5.79 0c2.2-1.49 3.17-1.18 3.17-1.18.63 1.59.23 2.77.11 3.06.74.81 1.19 1.84 1.19 3.1 0 4.42-2.69 5.4-5.26 5.68.41.36.77 1.06.77 2.13 0 1.54-.01 2.78-.01 3.16 0 .31.21.67.79.55 4.57-1.52 7.86-5.83 7.86-10.91C23.5 5.65 18.35.5 12 .5z"/></svg>
